<?xml version="1.0" standalone="no"?>
<!DOCTYPE svg PUBLIC "-//W3C//DTD SVG 20010904//EN"
 "http://www.w3.org/TR/2001/REC-SVG-20010904/DTD/svg10.dtd">
<svg version="1.0" xmlns="http://www.w3.org/2000/svg"
 width="300.000000pt" height="303.000000pt" viewBox="0 0 300.000000 303.000000"
 preserveAspectRatio="xMidYMid meet">
<g transform="translate(0.000000,303.000000) scale(0.100000,-0.100000)"
fill="#B87333" stroke="none">
<path d="M1490 2965 c0 -12 -20 -16 -107 -18 -35 -1 -63 -6 -63 -10 0 -5 -5
-5 -11 -1 -6 3 -15 0 -20 -7 -8 -11 -12 -10 -26 6 -9 12 -14 14 -11 5 3 -8 0
-20 -7 -27 -10 -10 -17 -7 -29 10 l-17 22 7 -25 c6 -22 5 -24 -10 -11 -13 11
-16 11 -14 2 2 -7 -7 -17 -19 -22 -15 -5 -23 -5 -23 2 0 6 -7 3 -16 -5 -18
-19 -36 -20 -51 -5 -9 9 -10 6 -6 -11 5 -17 3 -21 -7 -15 -7 4 -16 2 -20 -6
-7 -10 -12 -10 -23 -1 -12 10 -15 9 -13 -5 1 -12 -5 -17 -16 -15 -10 2 -18 -2
-18 -8 0 -6 -4 -9 -9 -6 -5 3 -12 -1 -15 -10 -3 -8 -10 -13 -15 -9 -6 3 -14
-2 -19 -11 -6 -11 -17 -15 -31 -11 -16 4 -21 1 -21 -15 0 -14 -5 -18 -15 -14
-8 3 -15 2 -15 -2 0 -9 -62 -46 -72 -44 -5 1 -8 -5 -8 -14 0 -8 -4 -12 -10 -9
-5 3 -10 1 -10 -5 0 -7 -7 -7 -22 1 -21 11 -22 11 -9 -5 13 -15 13 -19 1 -26
-8 -5 -17 -7 -21 -4 -4 2 -10 -5 -14 -16 -4 -11 -11 -18 -16 -15 -5 4 -9 0 -9
-8 0 -12 -43 -57 -55 -57 -16 0 -114 -122 -162 -200 -72 -120 -120 -247 -157
-415 -34 -158 -38 -213 -26 -375 10 -135 21 -194 65 -345 19 -63 101 -236 137
-289 70 -100 174 -219 237 -271 40 -33 85 -70 99 -83 25 -21 168 -112 177
-112 2 0 37 -15 77 -34 162 -75 377 -118 553 -111 61 2 119 6 130 8 18 4 51 9
155 23 39 6 95 21 125 34 11 5 59 26 107 48 47 21 97 46 110 55 13 9 48 35 78
57 30 22 67 48 82 57 16 10 28 22 28 27 0 4 -15 -3 -33 -16 -38 -29 -185 -117
-242 -146 -143 -71 -387 -125 -570 -125 -363 0 -697 149 -955 426 -107 115
-223 311 -271 457 -52 160 -62 228 -63 435 -1 191 0 204 27 300 60 210 94 286
200 445 48 72 194 225 247 259 14 9 45 31 69 49 96 73 296 159 460 199 92 23
128 26 281 27 224 1 337 -23 560 -119 363 -156 649 -513 736 -920 27 -125 25
-369 -5 -510 -39 -187 -101 -340 -193 -478 -21 -31 -34 -57 -28 -57 16 0 36
22 45 49 4 12 9 20 12 17 8 -8 31 18 27 29 -3 6 5 21 16 33 12 13 33 55 47 95
13 40 29 77 35 84 5 7 7 17 3 22 -3 6 0 8 8 5 9 -3 13 2 12 17 -1 12 9 52 21
90 12 38 20 81 18 96 -5 24 -3 25 13 12 16 -12 17 -12 6 2 -13 16 -10 59 5 68
5 3 6 15 3 25 -4 10 -4 42 0 70 3 28 4 92 2 141 -3 50 -5 107 -5 128 1 20 -2
37 -7 37 -4 0 -8 6 -9 13 -4 64 -18 130 -32 156 -6 12 -7 21 -3 21 4 0 1 5 -7
10 -13 9 -13 11 0 20 13 8 13 10 -1 10 -9 0 -16 6 -16 13 -1 22 -8 41 -20 55
-7 7 -13 25 -14 40 0 24 -1 25 -9 7 -9 -20 -9 -20 -9 0 -1 11 -7 29 -15 40 -7
11 -28 47 -46 80 -18 33 -41 67 -51 76 -11 9 -19 21 -19 28 0 6 -4 11 -10 11
-5 0 -7 7 -3 15 3 10 0 15 -8 13 -8 -2 -13 3 -12 9 2 7 -2 12 -9 10 -6 -1 -20
15 -31 35 -11 21 -23 35 -28 33 -4 -3 -16 10 -28 28 -11 17 -21 27 -21 20 0
-7 -16 3 -35 23 -19 19 -35 39 -35 45 0 6 -4 8 -9 4 -5 -3 -16 1 -23 9 -8 7
-29 21 -46 30 -18 9 -30 21 -27 26 3 6 0 7 -8 4 -8 -3 -17 2 -21 11 -3 9 -10
13 -16 10 -5 -3 -10 -1 -10 6 0 7 -3 10 -6 6 -4 -3 -21 5 -38 18 -17 13 -42
26 -56 28 -41 8 -60 18 -60 32 0 8 -8 11 -19 8 -10 -3 -30 1 -42 8 -13 7 -35
15 -49 17 -13 2 -27 6 -30 10 -3 4 -14 8 -25 10 -38 5 -45 8 -60 28 -15 18
-15 18 -8 0 4 -13 3 -17 -5 -12 -12 7 -72 17 -104 17 -10 0 -20 4 -23 9 -3 5
-12 7 -20 3 -9 -3 -15 1 -15 8 0 11 -2 11 -9 0 -7 -11 -13 -12 -23 -3 -8 7
-19 7 -28 2 -9 -5 -19 -5 -27 2 -7 6 -13 6 -13 2 0 -14 -84 -13 -92 0 -5 7 -8
7 -8 1z"/>
<path d="M1430 2870 c-73 -9 -136 -22 -250 -54 -182 -51 -317 -179 -398 -378
-20 -51 -26 -85 -30 -181 -6 -150 19 -256 85 -360 38 -59 52 -72 101 -95 49
-23 70 -27 152 -27 154 0 247 40 520 222 171 115 221 139 338 169 111 28 244
32 349 10 64 -14 270 -91 314 -119 16 -9 21 -9 27 1 6 8 15 0 31 -28 12 -22
27 -45 34 -52 18 -19 41 -67 35 -73 -3 -3 -28 20 -56 50 -31 33 -60 55 -72 55
-17 0 2 -26 87 -119 59 -66 109 -115 111 -110 2 5 -4 43 -14 85 -15 69 -22 82
-75 141 -33 36 -59 69 -59 74 0 19 26 8 52 -23 41 -49 35 -16 -18 97 -77 165
-155 255 -269 310 -302 144 -520 124 -870 -80 -55 -32 -111 -64 -125 -72 -22
-11 -22 -13 -5 -13 11 0 83 31 160 69 370 182 526 193 820 61 71 -32 100 -52
116 -81 8 -15 5 -15 -34 -2 -23 8 -91 28 -152 43 -99 26 -123 28 -235 25 -123
-3 -188 -15 -265 -49 -84 -37 -172 -84 -230 -121 -33 -22 -97 -63 -142 -93
-107 -70 -234 -121 -313 -125 -69 -5 -137 21 -180 68 -24 26 -25 32 -25 153 0
109 3 137 25 197 28 80 62 139 87 154 10 5 16 12 13 15 -3 3 18 29 46 58 62
65 75 85 46 69 -20 -10 -49 -42 -128 -140 -77 -96 -116 -213 -118 -350 -1
-134 17 -178 87 -217 46 -25 62 -28 137 -28 74 1 96 5 175 37 50 21 126 61
170 90 246 163 280 182 406 224 76 25 97 28 224 28 149 0 185 -7 314 -58 67
-26 212 -117 239 -149 6 -7 14 -26 18 -42 l7 -30 -24 23 c-80 77 -270 173
-419 211 -74 20 -224 15 -315 -9 -94 -25 -209 -77 -274 -125 -78 -57 -281
-175 -339 -196 -132 -49 -239 -51 -328 -6 -59 30 -71 42 -86 88 -31 96 -26
240 13 353 23 68 71 156 96 176 9 8 34 36 55 62 44 57 126 127 147 127 10 0 7
-8 -10 -26 -17 -18 -19 -23 -6 -18 9 3 17 10 17 15 0 5 9 9 19 9 11 0 21 4 23
10 2 5 27 11 56 14 29 3 57 8 63 12 5 3 76 6 157 6 140 1 255 -11 332 -34 40
-12 197 -75 220 -88 8 -5 34 -18 57 -30 79 -40 76 -50 -18 -51 -99 -1 -115 -3
-239 -31 -52 -12 -101 -23 -108 -24 -7 -1 -24 -9 -37 -18 -13 -9 -29 -16 -35
-16 -15 0 -172 -104 -194 -128 -28 -32 -15 -27 61 22 78 50 158 92 217 113 70
24 228 53 296 53 79 0 203 -30 289 -70 35 -17 66 -30 69 -30 11 0 -43 51 -97
93 -270 209 -615 313 -921 277z m-370 -166 c0 -8 -15 -29 -34 -47 -133 -126
-203 -394 -146 -558 27 -78 41 -94 105 -127 66 -34 186 -42 268 -18 71 21 186
80 342 176 120 74 202 115 285 143 45 15 57 18 156 35 93 16 223 -7 395 -70
51 -19 219 -130 219 -145 0 -17 -20 -16 -39 1 -29 26 -232 98 -316 113 -16 3
-86 6 -155 6 -119 1 -131 -1 -243 -37 -90 -29 -141 -53 -212 -100 -288 -186
-363 -229 -455 -258 -100 -31 -171 -31 -263 0 l-78 27 -34 65 c-95 184 -97
193 -77 356 14 114 20 139 57 219 38 82 106 167 166 207 48 32 59 34 59 12z"/>
<path d="M827 2646 c-142 -110 -174 -152 -214 -283 -34 -113 -38 -299 -9 -403
24 -84 76 -183 126 -241 80 -94 231 -168 340 -169 66 0 178 29 258 68 75 37
247 156 337 234 39 33 98 78 133 100 34 22 60 44 56 49 -10 17 -161 -79 -214
-136 -19 -21 -73 -63 -119 -94 -46 -31 -102 -68 -125 -84 -54 -36 -136 -74
-205 -94 -198 -58 -407 54 -521 280 -22 43 -38 83 -35 87 3 5 1 11 -3 14 -12
7 -17 79 -16 201 1 83 7 116 32 195 21 63 42 107 62 129 37 40 49 35 27 -12
-45 -95 -63 -222 -46 -319 l13 -73 7 116 c14 215 52 312 187 472 27 31 -2 16
-71 -37z"/>
<path d="M542 2367 c-75 -127 -87 -184 -79 -367 12 -271 125 -471 321 -570
106 -53 172 -70 275 -70 160 0 301 59 493 206 21 16 48 37 60 46 23 17 23 17
-9 8 -18 -5 -68 -33 -111 -62 -199 -137 -321 -185 -441 -173 -148 14 -285 74
-381 168 -69 66 -133 193 -160 316 -20 90 -26 269 -10 306 10 23 10 23 16 -85
9 -157 84 -336 187 -445 34 -36 65 -65 69 -65 5 0 26 -11 47 -25 119 -79 267
-96 406 -46 86 31 220 98 263 132 15 11 45 34 67 50 68 52 107 83 139 110 78
67 240 150 326 168 25 5 79 13 120 17 41 3 82 10 90 15 27 15 -141 10 -209 -7
-103 -25 -254 -104 -361 -189 -251 -200 -440 -295 -585 -295 -185 0 -380 133
-459 312 -53 120 -61 164 -61 333 0 150 2 165 28 234 15 41 26 75 24 77 -2 2
-31 -43 -65 -99z"/>
<path d="M404 2133 c-27 -82 -29 -99 -28 -243 0 -147 2 -160 32 -244 61 -172
190 -319 346 -395 103 -50 217 -81 297 -81 188 0 426 117 503 246 17 29 51 72
76 97 25 25 54 63 65 84 10 21 26 47 35 57 16 21 -89 -56 -225 -164 -71 -57
-187 -115 -290 -145 -79 -24 -102 -26 -185 -21 -52 3 -116 12 -142 20 -83 25
-208 105 -283 181 -122 123 -170 247 -180 464 -4 71 -2 148 3 176 6 27 9 51 7
53 -1 2 -16 -36 -31 -85z m54 -448 c66 -139 151 -233 281 -308 98 -56 121 -65
206 -77 133 -18 232 -10 320 29 11 4 45 19 75 32 30 13 75 36 100 51 115 70
123 71 90 14 -27 -45 -133 -130 -197 -157 -26 -11 -61 -27 -78 -34 -16 -8 -66
-20 -110 -27 -81 -14 -170 -7 -250 20 -49 16 -196 90 -229 116 -77 59 -164
168 -206 261 -26 58 -50 145 -39 145 4 0 21 -29 37 -65z"/>
<path d="M2029 2145 c-47 -6 -108 -20 -135 -29 -56 -18 -192 -94 -299 -166
-253 -170 -350 -209 -523 -210 -79 0 -100 4 -140 24 -82 42 -145 120 -176 219
-12 38 -23 15 -15 -30 11 -59 47 -111 118 -174 67 -58 117 -73 242 -71 134 1
261 55 497 210 110 72 256 147 312 160 126 30 128 31 221 38 57 4 105 1 187
-15 62 -12 119 -24 127 -27 8 -4 15 -2 15 4 0 14 -133 60 -210 72 -79 12 -110
11 -221 -5z"/>
<path d="M2153 2072 c-39 -6 -25 -19 25 -25 26 -3 48 -4 50 -2 8 7 -55 30 -75
27z"/>
<path d="M2420 2040 c13 -11 26 -20 29 -20 13 0 272 -262 286 -290 9 -17 13
-30 10 -30 -3 0 -38 27 -78 61 -62 52 -145 101 -222 129 -72 27 -212 36 -311
20 -157 -25 -261 -76 -376 -182 -31 -29 -64 -59 -75 -66 -10 -7 -2 -5 17 5 19
9 38 16 41 16 3 -1 34 23 70 54 176 154 442 194 664 100 125 -53 203 -118 276
-229 28 -43 55 -78 60 -78 15 0 10 58 -11 117 -11 32 -20 65 -20 75 0 26 -278
304 -323 323 -50 21 -65 19 -37 -5z"/>
<path d="M331 1900 c-7 -14 -16 -146 -15 -225 0 -95 22 -173 78 -284 32 -61
172 -211 246 -261 187 -127 401 -173 585 -126 93 24 218 85 282 138 29 24 98
81 153 128 161 135 181 149 255 184 184 86 409 89 590 7 36 -17 79 -39 95 -51
17 -12 28 -16 25 -8 -6 15 -82 65 -137 90 -114 51 -330 66 -447 29 -34 -10
-61 -17 -61 -15 0 7 -107 -50 -170 -91 -36 -23 -97 -68 -136 -101 -135 -112
-246 -196 -308 -232 -49 -29 -214 -72 -275 -72 -44 0 -153 20 -216 39 -106 32
-243 118 -325 203 -95 98 -169 208 -140 208 6 0 10 -6 10 -13 0 -24 118 -143
186 -188 110 -73 181 -106 294 -136 80 -21 224 -28 274 -13 160 47 274 108
362 195 87 86 199 235 192 256 -2 5 -34 -32 -72 -82 -152 -199 -282 -287 -492
-334 -196 -44 -496 64 -651 234 -40 44 -130 205 -150 268 -8 26 -18 95 -22
153 -5 58 -9 103 -10 100z"/>
<path d="M2074 1830 c-96 -25 -163 -60 -261 -137 -46 -35 -83 -66 -83 -68 0
-9 78 30 110 55 91 72 234 124 360 131 41 2 120 -8 170 -23 75 -21 200 -92
244 -137 45 -45 135 -175 137 -196 0 -5 2 -17 4 -25 1 -9 -3 -29 -10 -45 l-13
-30 -11 29 c-13 33 -26 29 -15 -6 7 -24 4 -35 -8 -30 -14 4 -8 -10 24 -55 l33
-45 12 40 c6 22 14 69 18 104 7 61 5 67 -31 133 -61 110 -147 194 -257 249
-151 75 -285 93 -423 56z"/>
<path d="M2986 1508 c-3 -13 -1 -27 4 -32 7 -7 10 1 10 22 0 37 -5 41 -14 10z"/>
<path d="M2086 1485 c-77 -16 -172 -58 -243 -107 -26 -18 -106 -84 -177 -146
-180 -158 -247 -202 -364 -241 -152 -49 -270 -54 -415 -16 -113 29 -192 66
-286 135 -86 63 -200 189 -239 265 -35 68 -39 61 -16 -29 68 -267 317 -488
618 -547 148 -29 217 -21 416 48 88 31 123 50 205 108 67 48 170 139 120 107
-114 -74 -143 -92 -152 -92 -5 0 -20 -11 -32 -24 -12 -13 -57 -39 -99 -59
-137 -64 -312 -98 -402 -78 -177 38 -290 95 -435 216 -47 40 -115 120 -115
137 0 4 35 -19 79 -52 107 -81 202 -132 291 -155 8 -2 40 -10 70 -18 157 -41
298 -25 469 54 91 43 181 110 325 244 16 16 168 128 191 142 45 27 107 52 157
62 68 14 237 21 244 10 3 -5 17 -9 31 -9 14 0 67 -14 117 -30 66 -22 103 -41
135 -69 30 -27 39 -40 30 -44 -10 -4 -8 -6 4 -6 10 -1 15 -5 12 -11 -3 -5 -1
-10 5 -10 18 0 50 -64 50 -102 0 -52 -17 -57 -54 -16 -39 44 -58 55 -176 103
-77 32 -110 40 -176 43 -178 9 -340 -38 -457 -132 -55 -44 -45 -53 12 -12 107
79 230 116 386 116 172 0 302 -47 416 -149 l57 -51 12 33 c6 17 18 47 26 65 8
18 14 40 14 50 0 9 -34 52 -76 95 -83 84 -168 133 -279 162 -86 23 -217 27
-299 10z"/>
<path d="M2013 1211 c-106 -37 -145 -61 -278 -171 -139 -115 -220 -169 -315
-208 -116 -47 -248 -82 -311 -82 -70 0 -204 23 -291 50 -67 20 -214 111 -273
168 -63 60 -137 153 -156 197 -27 62 -33 57 -8 -7 11 -29 31 -62 43 -73 13
-11 54 -67 91 -125 101 -153 279 -326 430 -416 139 -83 433 -164 594 -164 152
0 391 51 546 116 124 53 328 203 422 312 l53 60 -39 35 c-62 56 -137 79 -271
85 -136 5 -217 -11 -295 -60 -27 -17 -75 -45 -105 -63 -66 -37 -186 -125 -172
-125 5 0 40 22 78 50 38 28 73 50 78 50 5 0 61 26 125 58 l115 57 131 -1 c96
0 144 -5 185 -19 68 -22 120 -59 120 -87 0 -17 -119 -144 -171 -183 -69 -50
-92 -66 -145 -98 -93 -56 -284 -124 -399 -142 -154 -25 -300 -29 -370 -12 -11
3 -45 8 -75 12 -71 9 -127 22 -166 40 -17 8 -40 16 -50 18 -31 6 -94 48 -88
59 3 5 20 8 38 7 39 -4 158 9 211 23 67 17 206 74 288 118 42 23 77 43 77 45
0 2 -46 -18 -103 -45 -279 -132 -540 -155 -708 -63 -27 14 -49 29 -49 33 0 3
39 -7 88 -24 71 -24 108 -30 202 -34 63 -2 113 -2 110 1 -3 2 -53 7 -112 10
-63 3 -118 11 -135 20 -15 8 -44 18 -63 22 -19 4 -55 21 -80 38 -51 35 -150
126 -150 138 0 4 26 -5 58 -21 68 -33 176 -64 280 -79 135 -20 182 -14 347 46
141 52 252 117 338 198 104 99 245 179 370 212 80 20 246 20 305 -1 23 -8 46
-16 50 -17 18 -4 78 -35 87 -45 20 -22 93 -74 103 -74 23 0 23 -41 1 -78 -30
-49 -40 -54 -64 -33 -46 41 -163 90 -233 96 -107 11 -270 -18 -355 -62 -86
-45 -81 -54 7 -13 136 65 325 75 459 27 77 -28 134 -64 143 -89 3 -10 8 -18
12 -18 11 0 102 155 102 173 0 2 -28 26 -62 54 -122 98 -228 133 -404 133 -94
0 -120 -4 -191 -29z"/>
<path d="M580 824 c0 -5 23 -32 52 -59 l52 -50 -49 55 c-27 30 -50 57 -52 59
-2 2 -3 0 -3 -5z"/>
<path d="M2520 739 c-47 -49 -82 -89 -76 -89 5 0 21 13 36 28 14 16 32 26 39
24 6 -2 10 0 9 5 -4 12 28 54 35 46 4 -3 7 1 7 11 0 10 5 14 12 10 6 -4 8 -3
5 3 -3 5 3 16 14 23 19 14 26 31 12 29 -5 -1 -46 -41 -93 -90z"/>
<path d="M1665 785 c-16 -14 -25 -25 -20 -25 6 1 24 12 40 25 17 14 26 25 20
25 -5 -1 -23 -12 -40 -25z"/>
<path d="M744 651 c4 -5 21 -20 39 -32 l32 -23 -20 23 c-22 25 -62 51 -51 32z"/>
<path d="M1360 648 c-19 -6 -30 -12 -24 -15 7 -2 27 3 45 11 39 17 29 19 -21
4z"/>
</g>
</svg>
